HIERARCHY
ROOT joint_Root
{
	OFFSET 0.0 0.0 0.0
	CHANNELS 6 Xposition Yposition Zposition Zrotation Xrotation Yrotation 
	JOINT Hips
	{
		OFFSET 4.5925 91.4895 -427.239
		CHANNELS 6 Xposition Yposition Zposition Zrotation Xrotation Yrotation 
		JOINT Spine
		{
			OFFSET 15.7357 0.0 0.0
			CHANNELS 6 Xposition Yposition Zposition Zrotation Xrotation Yrotation 
			JOINT Chest
			{
				OFFSET 8.98455 -0.406207 0.0
				CHANNELS 6 Xposition Yposition Zposition Zrotation Xrotation Yrotation 
				JOINT Neck
				{
					OFFSET 16.3773 0.0 0.0
					CHANNELS 6 Xposition Yposition Zposition Zrotation Xrotation Yrotation 
					JOINT Head
					{
						OFFSET 6.45672 0.0 0.0
						CHANNELS 6 Xposition Yposition Zposition Zrotation Xrotation Yrotation 
						End Site
						{
							OFFSET 0.0 0.0 0.0
						}
					}
				}
				JOINT Shoulder_L
				{
					OFFSET 12.9942 -0.242716 4.98039
					CHANNELS 6 Xposition Yposition Zposition Zrotation Xrotation Yrotation 
					JOINT UpperArm_L
					{
						OFFSET 5.34809 0.0 0.0
						CHANNELS 6 Xposition Yposition Zposition Zrotation Xrotation Yrotation 
						JOINT LowerArm_L
						{
							OFFSET 24.3286 1.87007e-05 0.0
							CHANNELS 6 Xposition Yposition Zposition Zrotation Xrotation Yrotation 
							JOINT Hand_L
							{
								OFFSET 22.2916 0.0 0.0
								CHANNELS 6 Xposition Yposition Zposition Zrotation Xrotation Yrotation 
								End Site
								{
									OFFSET 0.0 0.0 0.0
								}
							}
						}
					}
				}
				JOINT Shoulder_R
				{
					OFFSET 12.9945 -0.242716 -4.98039
					CHANNELS 6 Xposition Yposition Zposition Zrotation Xrotation Yrotation 
					JOINT UpperArm_R
					{
						OFFSET -5.34813 0.0 0.0
						CHANNELS 6 Xposition Yposition Zposition Zrotation Xrotation Yrotation 
						JOINT LowerArm_R
						{
							OFFSET -24.3289 0.000322201 0.0
							CHANNELS 6 Xposition Yposition Zposition Zrotation Xrotation Yrotation 
							JOINT Hand_R
							{
								OFFSET -22.2915 -0.000108084 0.0
								CHANNELS 6 Xposition Yposition Zposition Zrotation Xrotation Yrotation 
								End Site
								{
									OFFSET 0.0 0.0 0.0
								}
							}
						}
					}
				}
			}
		}
		JOINT UpperLeg_L
		{
			OFFSET -2.19248 -6.46944 0.0
			CHANNELS 6 Xposition Yposition Zposition Zrotation Xrotation Yrotation 
			JOINT LowerLeg_L
			{
				OFFSET 39.0811 0.0 -1.23785e-05
				CHANNELS 6 Xposition Yposition Zposition Zrotation Xrotation Yrotation 
				JOINT Foot_L
				{
					OFFSET 40.9854 0.0 -1.26872e-05
					CHANNELS 6 Xposition Yposition Zposition Zrotation Xrotation Yrotation 
					JOINT Toes_L
					{
						OFFSET 11.7543 0.0 0.0
						CHANNELS 6 Xposition Yposition Zposition Zrotation Xrotation Yrotation 
						End Site
						{
							OFFSET 0.0 0.0 0.0
						}
					}
				}
			}
		}
		JOINT UpperLeg_R
		{
			OFFSET -2.19251 6.46944 0.0
			CHANNELS 6 Xposition Yposition Zposition Zrotation Xrotation Yrotation 
			JOINT LowerLeg_R
			{
				OFFSET -39.0811 -0.00228153 -0.0401928
				CHANNELS 6 Xposition Yposition Zposition Zrotation Xrotation Yrotation 
				JOINT Foot_R
				{
					OFFSET -40.9854 0.0 0.0
					CHANNELS 6 Xposition Yposition Zposition Zrotation Xrotation Yrotation 
					JOINT Toes_R
					{
						OFFSET -11.7543 0.0 0.0
						CHANNELS 6 Xposition Yposition Zposition Zrotation Xrotation Yrotation 
						End Site
						{
							OFFSET 0.0 0.0 0.0
						}
					}
				}
			}
		}
	}
}
MOTION
Frames:	7
Frame Time:	0.0333333
0.000000 0.000000 0.000000 0.000000 0.000000 -0.000000 1.628800 90.573400 -0.805508 90.077900 -4.354570 15.073700 15.735700 0.000005 -0.000001 90.565400 84.037600 -91.775200 8.984550 -0.406207 -0.000000 4.160990 0.155511 -2.422580 16.377300 -0.000001 -0.000001 23.383600 -3.668010 -0.338333 6.456720 -0.000001 -0.000000 18.884000 -5.508060 -6.548580 12.994200 -0.242716 4.980390 -88.182800 -4.892110 -69.593100 5.348090 -0.000007 -0.000001 -23.112700 -26.229400 -68.896700 24.328600 0.000019 0.000005 47.744600 4.067490 -86.312800 22.291600 -0.000001 0.000005 45.948800 5.345270 -1.231600 12.994500 -0.242716 -4.980390 90.521600 -2.113280 -76.132100 -5.348130 -0.000001 -0.000004 -21.829700 -29.155400 -65.615400 -24.328900 0.000322 -0.000009 20.636000 2.804680 -82.597800 -22.291500 -0.000108 -0.000004 43.544400 5.658290 -15.864700 -2.192480 -6.469440 -0.000000 -175.421000 -14.099400 4.240400 39.081100 -0.000007 -0.000012 -0.132236 0.213136 31.816900 40.985400 -0.000006 -0.000013 1.460410 3.382750 -70.816500 11.754300 -0.000000 0.000003 -0.000163 -0.001560 -16.636700 -2.192510 6.469440 -0.000001 169.643000 20.337100 -174.426000 -39.081100 -0.002282 -0.040193 -0.222241 0.370269 31.346900 -40.985400 0.000008 0.000006 1.795270 14.212300 -70.442100 -11.754300 -0.000006 -0.000006 -0.003062 -0.041297 -18.252600
0.000000 0.000000 0.000000 0.000000 0.000000 -0.000000 1.754770 90.578000 -0.895490 90.085200 -4.374410 15.047200 15.735700 0.000005 -0.000001 90.925400 84.028600 -92.185900 8.984550 -0.406207 -0.000000 4.179040 0.232008 -2.526530 16.377300 -0.000001 -0.000001 23.089100 -3.625680 -0.434979 6.456720 -0.000001 -0.000000 18.726300 -5.531680 -6.853660 12.994200 -0.242716 4.980390 -88.202600 -4.843160 -69.610000 5.348090 -0.000007 -0.000001 -23.277300 -26.138500 -68.939200 24.328600 0.000019 0.000005 47.988000 3.863940 -86.526300 22.291600 -0.000001 0.000005 46.897900 5.361700 -1.731250 12.994500 -0.242716 -4.980390 90.529700 -2.155620 -76.189500 -5.348130 -0.000001 -0.000004 -22.044000 -29.051200 -65.581800 -24.328900 0.000322 -0.000009 20.703900 2.785350 -82.674400 -22.291500 -0.000108 -0.000004 44.322100 5.661150 -16.192400 -2.192480 -6.469440 -0.000000 -175.535000 -14.139100 4.133330 39.081100 -0.000007 -0.000012 -0.130064 0.209549 31.827600 40.985400 -0.000006 -0.000013 1.542990 3.322150 -70.769600 11.754300 -0.000000 0.000003 -0.000166 -0.001581 -16.637500 -2.192510 6.469440 -0.000001 169.635000 20.235600 -174.565000 -39.081100 -0.002282 -0.040193 -0.219540 0.365706 31.355900 -40.985400 0.000008 0.000006 1.710580 14.181600 -70.335800 -11.754300 -0.000006 -0.000006 -0.002729 -0.037498 -18.098000
0.000000 0.000000 0.000000 0.000000 0.000000 -0.000000 1.862360 90.589300 -0.993772 90.055600 -4.372020 14.954500 15.735700 0.000005 -0.000001 91.204200 84.032300 -92.503700 8.984550 -0.406207 -0.000000 4.171500 0.291180 -2.606590 16.377300 -0.000001 -0.000001 22.956100 -3.609880 -0.561398 6.456720 -0.000001 -0.000000 18.532800 -5.524810 -7.130100 12.994200 -0.242716 4.980390 -88.222800 -4.763100 -69.510500 5.348090 -0.000007 -0.000001 -24.369300 -26.555900 -68.911000 24.328600 0.000019 0.000005 47.488300 4.486860 -85.897900 22.291600 -0.000001 0.000005 47.703300 5.348600 -1.337570 12.994500 -0.242716 -4.980390 90.525600 -2.139060 -76.192500 -5.348130 -0.000001 -0.000004 -23.162300 -29.430000 -65.406900 -24.328900 0.000322 -0.000009 19.987400 2.959280 -81.922400 -22.291500 -0.000108 -0.000004 44.899200 5.657190 -15.741100 -2.192480 -6.469440 -0.000000 -175.639000 -14.138700 3.945740 39.081100 -0.000007 -0.000012 -0.124584 0.200665 31.834600 40.985400 -0.000006 -0.000013 1.628690 3.281670 -70.707800 11.754300 -0.000000 0.000003 -0.000174 -0.001649 -16.640000 -2.192510 6.469440 -0.000001 169.663000 20.224300 -174.724000 -39.081100 -0.002282 -0.040193 -0.217617 0.363227 31.308400 -40.985400 0.000008 0.000006 1.630860 14.172200 -70.207600 -11.754300 -0.000006 -0.000006 -0.003063 -0.041316 -18.253400
0.000000 0.000000 0.000000 0.000000 0.000000 -0.000000 1.980830 90.605700 -1.087120 90.044100 -4.331100 14.865100 15.735700 0.000005 -0.000001 91.567100 84.028600 -92.909600 8.984550 -0.406207 -0.000000 4.178090 0.368112 -2.695270 16.377300 -0.000001 -0.000001 23.010300 -3.608180 -0.666612 6.456720 -0.000001 -0.000000 18.310200 -5.549570 -7.339110 12.994200 -0.242716 4.980390 -88.236700 -4.697880 -69.399400 5.348090 -0.000007 -0.000001 -26.307200 -27.451600 -68.791400 24.328600 0.000019 0.000005 46.142700 5.666530 -84.579600 22.291600 -0.000001 0.000005 47.304600 5.329690 -0.775091 12.994500 -0.242716 -4.980390 90.519300 -2.102070 -76.120200 -5.348130 -0.000001 -0.000004 -25.165400 -30.249100 -65.078900 -24.328900 0.000322 -0.000009 19.602500 3.373310 -80.619000 -22.291500 -0.000108 -0.000004 44.479700 5.640440 -14.159400 -2.192480 -6.469440 -0.000000 -175.760000 -14.123700 3.784140 39.081100 -0.000007 -0.000012 -0.122051 0.196848 31.800200 40.985400 -0.000006 -0.000013 1.711420 3.244930 -70.628600 11.754300 -0.000000 0.000003 -0.000161 -0.001539 -16.635900 -2.192510 6.469440 -0.000001 169.648000 20.302600 -174.864000 -39.081100 -0.002282 -0.040193 -0.213060 0.356584 31.247800 -40.985400 0.000008 0.000006 1.567920 14.206700 -70.071500 -11.754300 -0.000006 -0.000006 -0.002932 -0.039830 -18.192900
0.000000 0.000000 0.000000 0.000000 0.000000 -0.000000 2.095140 90.624600 -1.177330 90.001900 -4.289030 14.750000 15.735700 0.000005 -0.000001 91.813900 84.044900 -93.179400 8.984550 -0.406207 -0.000000 4.144680 0.419535 -2.743070 16.377300 -0.000001 -0.000001 23.008500 -3.589420 -0.790314 6.456720 -0.000001 -0.000000 18.388900 -5.533950 -7.582920 12.994200 -0.242716 4.980390 -88.241300 -4.643020 -69.227300 5.348090 -0.000007 -0.000001 -28.765300 -28.641000 -68.454400 24.328600 0.000019 0.000005 44.423400 7.142750 -82.768600 22.291600 -0.000001 0.000005 46.107700 5.309900 -0.208044 12.994500 -0.242716 -4.980390 90.495200 -1.997840 -76.076000 -5.348130 -0.000001 -0.000004 -27.500600 -31.355000 -64.528000 -24.328900 0.000322 -0.000009 19.626000 3.977040 -78.994800 -22.291500 -0.000108 -0.000004 44.030800 5.599710 -11.335400 -2.192480 -6.469440 -0.000000 -175.856000 -14.106100 3.604060 39.081100 -0.000007 -0.000012 -0.117233 0.189321 31.767300 40.985400 -0.000006 -0.000013 1.800160 3.225570 -70.557100 11.754300 -0.000000 0.000003 -0.000158 -0.001514 -16.635000 -2.192510 6.469440 -0.000001 169.659000 20.375200 -174.996000 -39.081100 -0.002282 -0.040193 -0.211046 0.354703 31.144700 -40.985400 0.000008 0.000006 1.484030 14.231300 -69.920200 -11.754300 -0.000006 -0.000006 -0.002852 -0.038914 -18.155600
0.000000 0.000000 0.000000 0.000000 0.000000 -0.000000 2.214930 90.642300 -1.253980 89.976000 -4.274380 14.631800 15.735700 0.000005 -0.000001 92.146300 84.047100 -93.520500 8.984550 -0.406207 -0.000000 4.138830 0.488676 -2.762940 16.377300 -0.000001 -0.000001 23.080100 -3.565110 -1.001320 6.456720 -0.000001 -0.000000 18.375100 -5.514390 -7.769330 12.994200 -0.242716 4.980390 -88.246700 -4.591040 -69.071700 5.348090 -0.000007 -0.000001 -31.570700 -30.069800 -67.939100 24.328600 0.000019 0.000005 42.726400 8.919950 -80.469500 22.291600 -0.000001 0.000005 45.481700 5.290430 0.340373 12.994500 -0.242716 -4.980390 90.472600 -1.898120 -76.014400 -5.348130 -0.000001 -0.000004 -30.007500 -32.751600 -63.816200 -24.328900 0.000322 -0.000009 18.642400 4.439650 -77.076800 -22.291500 -0.000108 -0.000004 43.865900 5.528950 -7.750330 -2.192480 -6.469440 -0.000000 -175.970000 -14.084800 3.434580 39.081100 -0.000007 -0.000012 -0.115443 0.186746 31.723900 40.985400 -0.000006 -0.000013 1.885870 3.194860 -70.489800 11.754300 -0.000000 0.000003 -0.000172 -0.001632 -16.639400 -2.192510 6.469440 -0.000001 169.693000 20.338400 -175.154000 -39.081100 -0.002282 -0.040193 -0.208545 0.351827 31.053600 -40.985400 0.000008 0.000006 1.380940 14.195300 -69.774300 -11.754300 -0.000006 -0.000006 -0.002993 -0.040525 -18.221200
0.000000 0.000000 0.000000 0.000000 0.000000 -0.000000 2.354950 90.646500 -1.319180 89.980500 -4.269820 14.547600 15.735700 0.000005 -0.000001 92.501600 84.027400 -93.889800 8.984550 -0.406207 -0.000000 4.176240 0.564013 -2.793880 16.377300 -0.000001 -0.000001 23.189900 -3.507900 -1.169750 6.456720 -0.000001 -0.000000 18.295400 -5.444980 -7.954900 12.994200 -0.242716 4.980390 -88.267800 -4.490790 -68.882000 5.348090 -0.000007 -0.000001 -34.697700 -31.717400 -67.472400 24.328600 0.000019 0.000005 40.845500 10.782800 -77.788600 22.291600 -0.000001 0.000005 44.661600 5.258580 1.207300 12.994500 -0.242716 -4.980390 90.447700 -1.791480 -75.965700 -5.348130 -0.000001 -0.000004 -33.157700 -34.485000 -63.291800 -24.328900 0.000322 -0.000009 17.057800 4.766410 -74.847600 -22.291500 -0.000108 -0.000004 43.276100 5.445820 -4.489780 -2.192480 -6.469440 -0.000000 -176.139000 -14.049700 3.276890 39.081100 -0.000007 -0.000012 -0.108156 0.174948 31.725300 40.985400 -0.000006 -0.000013 1.964090 3.069130 -70.450700 11.754300 -0.000000 0.000003 -0.000158 -0.001516 -16.635100 -2.192510 6.469440 -0.000001 169.672000 20.254700 -175.294000 -39.081100 -0.002282 -0.040193 -0.207114 0.349774 31.030100 -40.985400 0.000008 0.000006 1.253570 14.118200 -69.676500 -11.754300 -0.000006 -0.000006 -0.003046 -0.041124 -18.245600
